# xmcd
#
# Track frame offsets:
# 150
# 12341
# 29682
# 42838
# 55005
# 69658
# 82827
# 93066
# 104017
# 118224
# 131288
# 143339
# 158299
#
# Disc length: 2272 seconds
#
#
# Revision: 0
# Processed by: cddbd v1.5.2PL0 Copyright (c) Steve Scherf et al.
# Submitted via: FreeRIP 2.96 
#
DISCID=9a08de0d
DTITLE=Batidão Sertanejo 2 - CD 3 - Batidão Sertanejo 2 - CD 3
DYEAR=2010
DGENRE=Sertanejo
TTITLE0=Tá Se Achando - Guilherme and Santiago
TTITLE1=Da Cor Do Pecado - Acústico - Fernando and Sorocaba
TTITLE2=Tô Nem Aí - Ao Vivo - Hugo Pena and Gabriel
TTITLE3=Os Dias Vão - Ao Vivo - Maria Cecília and Rodolfo
TTITLE4=Que Se Dane O Mundo - Adair Cardoso
TTITLE5=Me Deixe Em Paz - Gusttavo Lima
TTITLE6=Tô Beijando Outra - Humberto and Ronaldo
TTITLE7=Pagode Ou Sertanejo - Jeann and Julio
TTITLE8=Cachaceiro - Tato and Ed Reis
TTITLE9=Zona Sul - Bruninho and Davi
TTITLE10=Será Que Vai Rolar? - Marcos and Belutti
TTITLE11=Deve Ser Amor - Patrícia and Adriana
TTITLE12=Vuco Vuco - Victor Pedrodo
EXTD=Ano 2010 - M. P. A.
EXTT0=
EXTT1=
EXTT2=
EXTT3=
EXTT4=
EXTT5=
EXTT6=
EXTT7=
EXTT8=
EXTT9=
EXTT10=
EXTT11=
EXTT12=
PLAYORDER=
